<svg xmlns="http://www.w3.org/2000/svg" width="59.329" height="55.468"><defs><clipPath id="a"><path data-name="長方形 237" fill="none" d="M0 0h59.329v55.468H0z"/></clipPath></defs><g data-name="グループ 191"><g data-name="グループ 190" clip-path="url(#a)" fill="#e60012"><path data-name="パス 222" d="M59.036 20.648l-6.153-6.153a1 1 0 00-1.414 0l-7.483 7.482-2 2-7.84 7.841-2 2-.432.432a.511.511 0 00-.041.062 1.19 1.19 0 00-.195.349c-.008.027-.027.047-.033.074L29.636 42.7a1 1 0 00.975 1.222 1.042 1.042 0 00.222-.025l7.963-1.81c.026-.006.046-.024.071-.032a1.227 1.227 0 00.349-.193c.02-.017.046-.024.065-.043l2.705-2.705 2-2 15.05-15.05a1 1 0 000-1.414m-22.91 12.016l5.86-5.861 2-2 5.853-5.853 1.661 1.663-7.516 7.516-1.854 1.856-6.63 6.633-1.663-1.663 1.139-1.139zm-2.369 8.513l-1.4-1.405.643-2.829 3.591 3.591zm10.229-6.9l-2 2-3.412 3.421-1.662-1.662 16-16.005 1.663 1.662zm12.007-12.002l-4.74-4.739.923-.922 4.739 4.739z"/><path data-name="長方形 234" d="M22.868 11.482h13.258v2H22.868z"/><path data-name="パス 223" d="M29.8 33.523a3.167 3.167 0 01.2-.325l.088-.158.2-.2 1.018-1.018H7.86v2h21.8c.047-.11.1-.215.14-.3"/><path data-name="長方形 235" d="M7.86 41.987h19.145v2H7.86z"/><path data-name="長方形 236" d="M7.86 21.65h28.266v2H7.86z"/><path data-name="パス 224" d="M41.986 53.468H2v-36.5h13.964a1 1 0 001-1V2h25.022v19.149l2-2V1a1 1 0 00-1-1H15.964a.619.619 0 00-.064.013.953.953 0 00-.264.053.948.948 0 00-.092.034.992.992 0 00-.284.19L.294 15.257v.005a.983.983 0 00-.191.282c-.014.031-.022.062-.033.094a1 1 0 00-.054.266c0 .021-.012.039-.012.06v38.5a1 1 0 001 1h41.982a1 1 0 001-1V39.941l-2 2zM14.964 3.414v11.55H3.414z"/></g></g></svg>