<svg xmlns="http://www.w3.org/2000/svg" width="53.993" height="65.474"><g data-name="グループ 189" fill="#e60012"><path data-name="パス 210" d="M52.993 65.474H11.007a1 1 0 01-1-1V54.468a1 1 0 012 0v9.006h39.986V12.01h-9.006a1 1 0 010-2h10.006a1 1 0 011 1v53.468a1 1 0 01-1 1"/><path data-name="パス 211" d="M42.988 55.468H1.001a1 1 0 01-1-1v-38.5a1 1 0 012 0v37.5h39.987V2H15.966a1 1 0 010-2h27.022a1 1 0 011 1v53.468a1 1 0 01-1 1"/><path data-name="パス 212" d="M15.965 16.965H1a1 1 0 01-.707-1.707L15.258.294a1 1 0 011.707.707v14.964a1 1 0 01-1 1m-12.551-2h11.551V3.41z"/><path data-name="長方形 228" d="M22.869 11.482h13.258v2H22.869z"/><path data-name="長方形 229" d="M7.861 21.65h28.266v2H7.861z"/><path data-name="長方形 230" d="M7.861 31.818h28.266v2H7.861z"/><path data-name="長方形 231" d="M7.861 41.987h28.266v2H7.861z"/></g></svg>