<svg xmlns="http://www.w3.org/2000/svg" width="54.994" height="65.239"><g data-name="グループ 188" fill="#e60012"><path data-name="パス 213" d="M54.408 61.828l-8.871-8.87a12.842 12.842 0 10-2.828 2.828l8.871 8.87a2 2 0 002.828-2.828M28.936 51.662a8.825 8.825 0 1112.48 0 8.836 8.836 0 01-12.48 0"/><path data-name="パス 214" d="M29.749 33.818h6.378v-1.17a13.156 13.156 0 00-.951-.045 12.853 12.853 0 00-5.427 1.215"/><path data-name="パス 215" d="M36.127 43.986v-2H30.5a5.744 5.744 0 00-.944 2z"/><path data-name="パス 216" d="M43.988 54.468v-8.856a8.8 8.8 0 01-2 5.418v2.438h-3.21a8.758 8.758 0 01-7.2 0h-6.382a12.711 12.711 0 00.915 1.022 12.845 12.845 0 001.107.978h15.774a1 1 0 001-1"/><path data-name="パス 217" d="M7.861 41.986v2h11.565a15.827 15.827 0 01.314-2z"/><path data-name="パス 218" d="M41.988 39.814a8.792 8.792 0 012 5.418v-9.111a12.875 12.875 0 00-2-1.554z"/><path data-name="パス 219" d="M27.053 41.986h-4.222a12.817 12.817 0 00-.386 2h4.035a8.829 8.829 0 01.573-2"/><path data-name="長方形 232" d="M22.868 11.481h13.259v2H22.868z"/><path data-name="パス 220" d="M21.565 53.468H2v-36.5h13.965a1 1 0 001-1V2h25.022v29.152a15.521 15.521 0 012 1.123V1a1 1 0 00-1-1H15.965c-.022 0-.041.011-.063.013a1.01 1.01 0 00-.641.277L.294 15.257a.983.983 0 00-.191.282c-.014.031-.022.062-.033.094a1 1 0 00-.054.266c0 .021-.012.039-.012.06v38.5a1 1 0 001 1h21.949a15.841 15.841 0 01-1.384-2m-6.6-50.054v11.55H3.414z"/><path data-name="パス 221" d="M7.861 33.818h16.582a15.845 15.845 0 012.676-2H7.861z"/><path data-name="長方形 233" d="M7.861 21.649h28.267v2H7.861z"/></g></svg>