<svg data-name="グループ 245" xmlns="http://www.w3.org/2000/svg" width="15.551" height="14"><defs><clipPath id="a"><path data-name="長方形 253" fill="none" d="M0 0h15.551v14H0z"/></clipPath></defs><g data-name="グループ 244" clip-path="url(#a)"><path data-name="パス 250" d="M9.318 0a6.233 6.233 0 11-6.234 6.233A6.212 6.212 0 019.318 0M5.035 6.237a4.287 4.287 0 104.287-4.288 4.273 4.273 0 00-4.287 4.288" fill="#e50012"/><path data-name="パス 251" d="M3.852 14H.029c-.044 0-.024-.043-.024-.043l2.339-6.14a.073.073 0 01.069-.039h3.813c.038 0 .029.031.029.031l-2.342 6.148a.068.068 0 01-.061.043" fill="#231815"/></g></svg>