<svg xmlns="http://www.w3.org/2000/svg" width="53.993" height="65.474" viewBox="0 0 53.993 65.474">
  <g id="グループ_189" data-name="グループ 189" transform="translate(-3310.825 -1276.19)">
    <path id="パス_210" data-name="パス 210" d="M256.415,232.664H214.429a1,1,0,0,1-1-1V221.658a1,1,0,0,1,2,0v9.006h39.986V179.2h-9.006a1,1,0,0,1,0-2h10.006a1,1,0,0,1,1,1v53.468a1,1,0,0,1-1,1" transform="translate(3107.403 1109)" fill="#e60012"/>
    <path id="パス_211" data-name="パス 211" d="M246.41,222.658H204.423a1,1,0,0,1-1-1v-38.5a1,1,0,0,1,2,0v37.5H245.41V169.19H219.388a1,1,0,0,1,0-2H246.41a1,1,0,0,1,1,1v53.468a1,1,0,0,1-1,1" transform="translate(3107.403 1109)" fill="#e60012"/>
    <path id="パス_212" data-name="パス 212" d="M219.387,184.155H204.422a1,1,0,0,1-.707-1.707l14.965-14.964a1,1,0,0,1,1.707.707v14.964a1,1,0,0,1-1,1m-12.551-2h11.551V170.6Z" transform="translate(3107.403 1109)" fill="#e60012"/>
    <rect id="長方形_228" data-name="長方形 228" width="13.258" height="2" transform="translate(3333.694 1287.672)" fill="#e60012"/>
    <rect id="長方形_229" data-name="長方形 229" width="28.266" height="2" transform="translate(3318.686 1297.84)" fill="#e60012"/>
    <rect id="長方形_230" data-name="長方形 230" width="28.266" height="2" transform="translate(3318.686 1308.008)" fill="#e60012"/>
    <rect id="長方形_231" data-name="長方形 231" width="28.266" height="2" transform="translate(3318.686 1318.177)" fill="#e60012"/>
  </g>
</svg>
