<svg xmlns="http://www.w3.org/2000/svg" width="54.994" height="65.239" viewBox="0 0 54.994 65.239">
  <g id="グループ_188" data-name="グループ 188" transform="translate(-3289.832 -1114.172)">
    <path id="パス_213" data-name="パス 213" d="M236.837,67l-8.871-8.87a12.842,12.842,0,1,0-2.828,2.828l8.871,8.87A2,2,0,0,0,236.837,67M211.365,56.834a8.825,8.825,0,1,1,12.48,0,8.836,8.836,0,0,1-12.48,0" transform="translate(3107.403 1109)" fill="#e60012"/>
    <path id="パス_214" data-name="パス 214" d="M212.178,38.99h6.378V37.82c-.317-.023-.634-.045-.951-.045a12.853,12.853,0,0,0-5.427,1.215" transform="translate(3107.403 1109)" fill="#e60012"/>
    <path id="パス_215" data-name="パス 215" d="M218.556,49.158v-2h-5.627a5.744,5.744,0,0,0-.944,2Z" transform="translate(3107.403 1109)" fill="#e60012"/>
    <path id="パス_216" data-name="パス 216" d="M226.417,59.64V50.784a8.8,8.8,0,0,1-2,5.418V58.64h-3.21a8.758,8.758,0,0,1-7.2,0h-6.382a12.711,12.711,0,0,0,.915,1.022,12.845,12.845,0,0,0,1.107.978h15.774a1,1,0,0,0,1-1" transform="translate(3107.403 1109)" fill="#e60012"/>
    <path id="パス_217" data-name="パス 217" d="M190.29,47.158v2h11.565a15.827,15.827,0,0,1,.314-2Z" transform="translate(3107.403 1109)" fill="#e60012"/>
    <path id="パス_218" data-name="パス 218" d="M224.417,44.986a8.792,8.792,0,0,1,2,5.418V41.293a12.875,12.875,0,0,0-2-1.554Z" transform="translate(3107.403 1109)" fill="#e60012"/>
    <path id="パス_219" data-name="パス 219" d="M209.482,47.158H205.26a12.817,12.817,0,0,0-.386,2h4.035a8.829,8.829,0,0,1,.573-2" transform="translate(3107.403 1109)" fill="#e60012"/>
    <rect id="長方形_232" data-name="長方形 232" width="13.259" height="2" transform="translate(3312.7 1125.653)" fill="#e60012"/>
    <path id="パス_220" data-name="パス 220" d="M203.994,58.64H184.429v-36.5h13.965a1,1,0,0,0,1-1V7.172h25.022V36.324a15.521,15.521,0,0,1,2,1.123V6.172a1,1,0,0,0-1-1H198.394c-.022,0-.041.011-.063.013a1.01,1.01,0,0,0-.641.277l0,0L182.723,20.429l0,0a.983.983,0,0,0-.191.282c-.014.031-.022.062-.033.094a1,1,0,0,0-.054.266c0,.021-.012.039-.012.06v38.5a1,1,0,0,0,1,1h21.949a15.841,15.841,0,0,1-1.384-2m-6.6-50.054v11.55H185.843Z" transform="translate(3107.403 1109)" fill="#e60012"/>
    <path id="パス_221" data-name="パス 221" d="M190.29,38.99h16.582a15.845,15.845,0,0,1,2.676-2H190.29Z" transform="translate(3107.403 1109)" fill="#e60012"/>
    <rect id="長方形_233" data-name="長方形 233" width="28.267" height="2" transform="translate(3297.693 1135.821)" fill="#e60012"/>
  </g>
</svg>
