<svg xmlns="http://www.w3.org/2000/svg" xmlns:xlink="http://www.w3.org/1999/xlink" width="59.329" height="55.468" viewBox="0 0 59.329 55.468">
  <defs>
    <clipPath id="clip-path">
      <rect id="長方形_237" data-name="長方形 237" width="59.329" height="55.468" transform="translate(0 0)" fill="none"/>
    </clipPath>
  </defs>
  <g id="グループ_191" data-name="グループ 191" transform="translate(0 0)">
    <g id="グループ_190" data-name="グループ 190" clip-path="url(#clip-path)">
      <path id="パス_222" data-name="パス 222" d="M59.036,20.648l-6.153-6.153a1,1,0,0,0-1.414,0l-7.483,7.482-2,2-7.84,7.841-2,2-.432.432a.511.511,0,0,0-.041.062,1.19,1.19,0,0,0-.195.349c-.008.027-.027.047-.033.074L29.636,42.7a1,1,0,0,0,.975,1.222,1.042,1.042,0,0,0,.222-.025l7.963-1.81c.026-.006.046-.024.071-.032a1.227,1.227,0,0,0,.349-.193c.02-.017.046-.024.065-.043l2.705-2.705,2-2,15.05-15.05a1,1,0,0,0,0-1.414M36.126,32.666l5.86-5.861,2-2,5.853-5.853L51.5,20.615l-7.516,7.516L42.13,29.987,35.5,36.62l-1.663-1.663,1.139-1.139Zm-2.369,8.513-1.4-1.405.643-2.829,3.591,3.591Zm10.229-6.9-2,2L38.574,39.7l-1.662-1.662,16-16.005,1.663,1.662ZM55.993,22.277l-4.74-4.739.923-.922,4.739,4.739Z" fill="#e60012"/>
      <rect id="長方形_234" data-name="長方形 234" width="13.258" height="2" transform="translate(22.868 11.482)" fill="#e60012"/>
      <path id="パス_223" data-name="パス 223" d="M29.8,33.523a3.167,3.167,0,0,1,.2-.325l.088-.158.2-.2,1.018-1.018H7.86v2h21.8c.047-.11.1-.215.14-.3" fill="#e60012"/>
      <rect id="長方形_235" data-name="長方形 235" width="19.145" height="2" transform="translate(7.86 41.987)" fill="#e60012"/>
      <rect id="長方形_236" data-name="長方形 236" width="28.266" height="2" transform="translate(7.86 21.65)" fill="#e60012"/>
      <path id="パス_224" data-name="パス 224" d="M41.986,53.468H2v-36.5H15.964a1,1,0,0,0,1-1V2H41.986V21.149l2-2V1a1,1,0,0,0-1-1H15.964A.619.619,0,0,0,15.9.013a.953.953,0,0,0-.264.053A.948.948,0,0,0,15.544.1.992.992,0,0,0,15.26.29l0,0L.294,15.257l0,.005a.983.983,0,0,0-.191.282c-.014.031-.022.062-.033.094a1,1,0,0,0-.054.266c0,.021-.012.039-.012.06v38.5a1,1,0,0,0,1,1H42.986a1,1,0,0,0,1-1V39.941l-2,2ZM14.964,3.414v11.55H3.414Z" fill="#e60012"/>
    </g>
  </g>
</svg>
