<svg xmlns="http://www.w3.org/2000/svg" width="66.279" height="67.473" viewBox="0 0 66.279 67.473">
  <g id="グループ_187" data-name="グループ 187" transform="translate(-3107.403 -1109)">
    <path id="パス_209" data-name="パス 209" d="M7.678,67.473A7.669,7.669,0,0,1,2.208,54.41L30.983,25.632c2.194-2.193,1.85-6.2,1.685-8.128-.042-.49-.071-.878-.066-1.123A16.746,16.746,0,0,1,47.284.087,8.261,8.261,0,0,1,49.428.055a1.843,1.843,0,0,1,1.452,2.9l-5.636,7.9a1.965,1.965,0,0,0,.589,2.688l7.981,5.711a1.983,1.983,0,0,0,2.789-.32l5.531-7.763a1.841,1.841,0,0,1,3.228.441,7.541,7.541,0,0,1,.593,1.9c.065.329.121.66.166.993a16.842,16.842,0,0,1-14.4,18.968l-.317.041c-4.993.638-8.206,1.644-9.551,2.988L13.078,65.27a7.667,7.667,0,0,1-5.4,2.2M48.569,2a6.929,6.929,0,0,0-1.012.072A14.761,14.761,0,0,0,34.6,16.43c0,.2.025.509.059.9.19,2.227.588,6.863-2.264,9.713L3.627,55.819a5.683,5.683,0,0,0,8.042,8.031L40.435,35.084c2.509-2.509,8.683-3.3,10.711-3.558l.3-.039A14.84,14.84,0,0,0,64.139,14.771c-.041-.3-.089-.592-.148-.886l-.005-.027a5.593,5.593,0,0,0-.388-1.3l-5.392,7.567a3.982,3.982,0,0,1-5.587.728L44.7,15.191a3.964,3.964,0,0,1-1.108-5.463l5.5-7.715C48.915,2,48.741,2,48.569,2M63.763,12.332h0M7.744,63.939a4.189,4.189,0,0,1-2.97-1.228L5.481,62l-.707.707a4.207,4.207,0,1,1,2.97,1.228m0-6.4A2.2,2.2,0,0,0,6.188,61.3a2.253,2.253,0,0,0,3.113,0,2.2,2.2,0,0,0-1.557-3.758" transform="translate(3107.403 1109)" fill="#e60012"/>
  </g>
</svg>
